<svg version="1.0" xmlns="http://www.w3.org/2000/svg" width="100" height="100" xml:space="preserve"><path fill="#C68046" stroke="#3E2426" stroke-width="1.5" stroke-linecap="round" stroke-linejoin="round" stroke-miterlimit="10" d="M55.495 79.843c-3.688-1.277-5.297-5.163-3.595-8.673h.003c4.936-10.181 17.603-15.424 28.29-11.717v-.004c3.689 1.281 5.295 5.164 3.593 8.675v.003c-4.933 10.18-17.6 15.427-28.291 11.716z"/><path fill="#AC713C" d="M80.193 59.449v.004c-3.137-1.089-6.444-1.4-9.678-1.048 1.58.177 3.148.517 4.677 1.048v-.004c3.689 1.281 5.295 5.164 3.593 8.675v.003c-3.484 7.192-10.829 11.914-18.61 12.765 9.477 1.054 19.384-4.04 23.611-12.765v-.003c1.702-3.511.097-7.394-3.593-8.675z"/><path fill="#C68046" stroke="#3E2426" stroke-width="1.5" stroke-linecap="round" stroke-linejoin="round" stroke-miterlimit="10" d="M38.781 66.643c3.899.227 6.869-2.747 6.642-6.643h-.001c-.665-11.292-10.359-20.986-21.652-21.651l.001-.003c-3.897-.227-6.869 2.746-6.642 6.642l-.002.004c.663 11.291 10.357 20.986 21.654 21.651z"/><path fill="#AC713C" d="M45.423 60c-.666-11.292-10.36-20.986-21.653-21.651l.001-.003a6.653 6.653 0 0 0-2.46.314c10.17 1.842 18.496 10.906 19.11 21.34h.002c.177 3.023-1.576 5.482-4.189 6.331.838.151 1.688.261 2.548.312 3.898.227 6.868-2.747 6.641-6.643z"/><path fill="#C68046" stroke="#3E2426" stroke-width="1.5" stroke-linecap="round" stroke-linejoin="round" stroke-miterlimit="10" d="M56.896 64.53c4.584-4.179 10.83-6.493 17.038-6.245 1.622-7.162-.038-15.072-5.02-20.677h-.004c-2.594-2.918-6.797-2.918-9.393 0h.003c-6.497 7.311-7.365 18.547-2.624 26.922z"/><path fill="#AC713C" d="M73.031 55.763c-6.372 0-12.561 2.418-17.257 6.45.334.79.697 1.568 1.121 2.317 4.584-4.179 10.83-6.493 17.038-6.245.186-.82.322-1.65.423-2.484-.44-.024-.881-.038-1.325-.038z"/><path fill="#C68046" stroke="#3E2426" stroke-width="1.5" stroke-linecap="round" stroke-linejoin="round" stroke-miterlimit="10" d="M35.272 42.428c9.086-2.704 16.221-11.144 16.786-20.77l-.005-.003c.232-3.896-2.741-6.87-6.639-6.642l.001.003c-11.291.665-20.985 10.359-21.652 21.652h-.001a6.737 6.737 0 0 0 .132 1.695c4.133.268 8.048 1.743 11.378 4.065z"/><path fill="#AC713C" d="m45.415 15.012.001.003c-.857.05-1.705.159-2.542.311 2.608.851 4.358 3.308 4.178 6.328l.006.003c-.499 8.5-6.124 16.068-13.688 19.586.651.368 1.29.756 1.903 1.184 9.086-2.704 16.221-11.144 16.786-20.77l-.005-.003c.232-3.896-2.741-6.869-6.639-6.642z"/><path fill="#AC713C" d="m27.557 36.356-3.641-.506c-.027-.002-.055-.001-.083-.003-.026.273-.053.546-.069.821h-.001a6.737 6.737 0 0 0 .132 1.695c4.133.269 8.048 1.743 11.378 4.065a22.647 22.647 0 0 0 2.738-1.029c-3.055-2.428-6.62-4.207-10.454-5.043z"/><path fill="none" stroke="#3E2426" stroke-width="1.5" stroke-linecap="round" stroke-linejoin="round" stroke-miterlimit="10" d="M84.014 62.949c-6.111-2.118-13.347.882-16.17 6.694h0c-2.821 5.822-10.06 8.818-16.166 6.7 6.106 2.118 13.345-.878 16.166-6.7h0c2.823-5.812 10.058-8.812 16.17-6.694z"/><path fill="#6C342C" stroke="#3E2426" stroke-width="1.5" stroke-linecap="round" stroke-linejoin="round" stroke-miterlimit="10" d="M84.014 62.949c3.159 7.631-1.52 16.808-10.449 20.508-8.932 3.7-18.728.517-21.889-7.113h.002c.651 1.57 1.975 2.858 3.817 3.499 10.69 3.711 23.357-1.536 28.291-11.716v-.003c.851-1.754.875-3.601.228-5.171v-.004z"/><path fill="none" stroke="#3E2426" stroke-width="1.5" stroke-linecap="round" stroke-linejoin="round" stroke-miterlimit="10" d="M18.901 40.12c6.454.379 11.992 5.918 12.375 12.375h0c.379 6.455 5.918 11.992 12.371 12.374-6.453-.382-11.992-5.919-12.371-12.374h0c-.382-6.457-5.921-11.996-12.375-12.375z"/><path fill="#6C342C" stroke="#3E2426" stroke-width="1.5" stroke-linecap="round" stroke-linejoin="round" stroke-miterlimit="10" d="M18.901 40.12c-5.84 5.839-5.03 16.109 1.805 22.944 6.836 6.835 17.105 7.647 22.944 1.805h-.001c-1.204 1.202-2.92 1.888-4.868 1.774-11.297-.665-20.991-10.36-21.654-21.652l.002-.004c-.115-1.946.57-3.662 1.771-4.868h.001z"/><path fill="none" stroke="#3E2426" stroke-width="1.5" stroke-linecap="round" stroke-linejoin="round" stroke-miterlimit="10" d="M30.804 39.999c3.957-2.139 6.837-6.252 7.105-10.838.385-6.456 5.923-11.996 12.377-12.375-6.454.379-11.992 5.918-12.377 12.375-.268 4.586-3.148 8.699-7.105 10.838z"/><path fill="#6C342C" stroke="#3E2426" stroke-width="1.5" stroke-linecap="round" stroke-linejoin="round" stroke-miterlimit="10" d="M50.286 16.787c1.204 1.206 1.886 2.921 1.768 4.868l.005.003c-.565 9.626-7.7 18.066-16.786 20.77a24.207 24.207 0 0 1 3.234 2.694c3.544-.679 7.069-2.484 9.976-5.388 6.832-6.835 7.641-17.108 1.803-22.947z"/><path fill="#57261F" d="M38.011 41.398c-.891.396-1.802.75-2.738 1.029a24.207 24.207 0 0 1 3.234 2.694 18.057 18.057 0 0 0 2.696-.74 27.383 27.383 0 0 0-3.192-2.983z"/><path fill="#6C342C" stroke="#3E2426" stroke-width="1.5" stroke-linecap="round" stroke-linejoin="round" stroke-miterlimit="10" d="M68.914 37.608c4.981 5.604 6.642 13.515 5.02 20.677 1.45.059 2.896.255 4.323.603.579-1.867.909-3.872.909-5.97 0-9.663-6.69-17.5-14.951-17.5 1.703.003 3.4.73 4.695 2.191h.004z"/><path fill="#57261F" d="M74.356 55.801a24.584 24.584 0 0 1-.423 2.484c1.45.059 2.896.255 4.323.603.255-.821.452-1.675.604-2.546 0 0-3.377-.483-4.504-.541zM51.678 76.344h-.002c.039.094.092.18.132.271-.043-.092-.091-.179-.13-.271zM51.808 76.615c.051.105.098.214.154.316-.051-.105-.106-.207-.154-.316zM84.014 62.953c.035.085.061.175.092.262-.034-.088-.056-.178-.092-.266v.004zM84.229 63.567c-.035-.119-.081-.235-.123-.353.045.118.08.237.123.353z"/><path fill="#AC713C" d="M68.914 37.608h-.004c-2.051-2.307-5.104-2.782-7.577-1.441.757.391 1.47.928 2.094 1.629h.003c5.027 5.656 6.936 13.472 5.767 20.791a23.254 23.254 0 0 1 4.737-.302c1.622-7.162-.038-15.072-5.02-20.677z"/><path fill="none" stroke="#3E2426" stroke-width="1.5" stroke-linecap="round" stroke-linejoin="round" stroke-miterlimit="10" d="M67.165 59.032c-.434-2.239-1.403-4.375-2.95-6.114-4.293-4.833-4.295-12.667 0-17.5-4.295 4.833-4.293 12.667 0 17.5 1.547 1.739 2.516 3.875 2.95 6.114z"/><path fill="none" stroke="#3E2426" stroke-width="1.5" stroke-linecap="round" stroke-linejoin="round" stroke-miterlimit="10" d="M55.495 79.843c-3.688-1.277-5.297-5.163-3.595-8.673h.003c4.936-10.181 17.603-15.424 28.29-11.717v-.004c3.689 1.281 5.295 5.164 3.593 8.675v.003c-4.933 10.18-17.6 15.427-28.291 11.716z"/><path fill="none" stroke="#3E2426" stroke-width="1.5" stroke-linecap="round" stroke-linejoin="round" stroke-miterlimit="10" d="M56.896 64.53c4.584-4.179 10.83-6.493 17.038-6.245 1.622-7.162-.038-15.072-5.02-20.677h-.004c-2.594-2.918-6.797-2.918-9.393 0h.003c-6.497 7.311-7.365 18.547-2.624 26.922zM84.014 62.949c3.159 7.631-1.52 16.808-10.449 20.508-8.932 3.7-18.728.517-21.889-7.113h.002c.651 1.57 1.975 2.858 3.817 3.499 10.69 3.711 23.357-1.536 28.291-11.716v-.003c.851-1.754.875-3.601.228-5.171v-.004z"/><path fill="none" stroke="#3E2426" stroke-width="1.5" stroke-linecap="round" stroke-linejoin="round" stroke-miterlimit="10" d="M68.914 37.608c4.981 5.604 6.642 13.515 5.02 20.677 1.45.059 2.896.255 4.323.603.579-1.867.909-3.872.909-5.97 0-9.663-6.69-17.5-14.951-17.5 1.703.003 3.4.73 4.695 2.191h.004zM38.781 66.643c3.899.227 6.869-2.747 6.642-6.643h-.001c-.665-11.292-10.359-20.986-21.652-21.651l.001-.003c-3.897-.227-6.869 2.746-6.642 6.642l-.002.004c.663 11.291 10.357 20.986 21.654 21.651z"/><path fill="none" stroke="#3E2426" stroke-width="1.5" stroke-linecap="round" stroke-linejoin="round" stroke-miterlimit="10" d="M35.272 42.428c9.086-2.704 16.221-11.144 16.786-20.77l-.005-.003c.232-3.896-2.741-6.87-6.639-6.642l.001.003c-11.291.665-20.985 10.359-21.652 21.652h-.001a6.737 6.737 0 0 0 .132 1.695c4.133.268 8.048 1.743 11.378 4.065z"/><path fill="none" stroke="#3E2426" stroke-width="1.5" stroke-linecap="round" stroke-linejoin="round" stroke-miterlimit="10" d="M50.286 16.787c1.204 1.206 1.886 2.921 1.768 4.868l.005.003c-.565 9.626-7.7 18.066-16.786 20.77a24.207 24.207 0 0 1 3.234 2.694c3.544-.679 7.069-2.484 9.976-5.388 6.832-6.835 7.641-17.108 1.803-22.947z"/></svg>