<svg version="1.0" xmlns="http://www.w3.org/2000/svg" width="100" height="100" xml:space="preserve"><circle fill="#754C29" cx="26.668" cy="13.333" r="3.333"/><circle fill="#754C29" cx="55.834" cy="20.833" r="2.5"/><circle fill="#754C29" cx="12.502" cy="35.833" r="2.5"/><path fill="#754C29" d="M53.438 29.112c-7.991-16.047-16.692-15.25-18.437-12.672-2.777 4.102 12.777 17.589-4.258 7.4-17.037-10.193-17.409 0-17.409 0 0 7.467 10.542 11.522 17.709 13.421l22.395-8.149z"/><path fill="#C49A6C" d="M82.853 54.29c6.582-7.101 9.072-17.533 5.535-27.259-1.891-5.19-7.633-7.864-12.816-5.974L22.32 40.438l8.262 11.181 6.078 27.828c1.802 8.187 9.718 12.539 17.596 9.671l25.01-9.104c7.877-2.863 11.143-11.288 7.262-18.713l-3.675-7.011zm-5.002-26.97a3.335 3.335 0 0 1 4.271 1.99c2.357 6.478 1.146 13.397-2.619 18.598l-9.334-17.793 7.682-2.795zm3.24 42.633c-.67 1.729-2.133 3.076-4.107 3.796l-25.01 9.102c-1.979.719-3.958.625-5.583-.268-1.624-.893-2.767-2.516-3.219-4.57l-6.38-29.211-3.806-5.151 30.863-11.235 16.773 31.979c.971 1.854 1.141 3.833.469 5.558z"/></svg>